<svg xmlns="http://www.w3.org/2000/svg" viewBox="0 0 1000 1000"><defs><style>.cls-1{fill:#020221;}.cls-2{fill:#ff8b00;}.cls-3{fill:#ffe600;}.cls-4{fill:#feee78;}.cls-5{fill:#ffaf03;}.cls-6{fill:#fe8f05;}.cls-7{fill:#ff8a04;}.cls-8{fill:#feb100;}.cls-9{fill:#ffac00;}.cls-10{fill:#fd8804;}.cls-11{fill:#f8b500;}.cls-12{fill:#ff9606;}.cls-13{fill:#ffb001;}.cls-14{fill:#ff6f06;}.cls-15{fill:#ff6b02;}.cls-16{fill:#ff6b01;}.cls-17{fill:#ff8d05;}.cls-18{fill:#fe8c02;}.cls-19{fill:#ff8901;}.cls-20{fill:#fe4801;}.cls-21{fill:#ff7304;}.cls-22{fill:#ff4500;}.cls-23{fill:#fd7500;}.cls-24{fill:#ffae00;}</style></defs><g id="Layer_3" data-name="Layer 3"><rect class="cls-1" width="1000" height="1000" rx="243"/></g><g id="Layer_2" data-name="Layer 2"><path class="cls-2" d="M693,471.58C717.87,681.29,357.57,661.91,258.2,652.63l1.31,4.12s4.52,18,31,18,474.7,40.86,474.7,40.86,46.87,13.22,42.06-49.28l8.28-104,.12-1.55a24.49,24.49,0,0,1-4,1.09,26.71,26.71,0,0,1-5.16.5c-16.22,0-29.38-14.32-29.38-32s13.16-32,29.38-32a26.71,26.71,0,0,1,5.16.5,27.47,27.47,0,0,1,9.41,3.72l.6-.43V467.47Zm-1.4,213.71c-16.21,0-29.36-14.32-29.36-32s13.15-32,29.36-32a26.39,26.39,0,0,1,6.31.75C711.12,625.2,721,638,721,653.31s-9.88,28.09-23.06,31.23A26.39,26.39,0,0,1,691.63,685.29Z"/><path class="cls-3" d="M707,335c-.38.83-.8,1.7-1.25,2.58-.33.66-.68,1.34-1.08,2-.17.33-.35.67-.55,1-.37.67-.77,1.34-1.19,2s-1,1.59-1.5,2.41c-.3.48-.64,1-.95,1.45-.62.92-1.27,1.83-2,2.78-.35.49-.71,1-1.08,1.47s-.65.87-1,1.31q-2,2.6-4.4,5.32c-.77.87-1.55,1.74-2.39,2.64-.48.53-1,1.08-1.52,1.62l-.33.35c-.94,1-1.9,1.95-2.92,2.93-.55.56-1.12,1.09-1.69,1.62-1.37,1.31-2.82,2.64-4.32,4l-.05.05a2.92,2.92,0,0,1-.29.23q-1,.88-2,1.74c-1.72,1.47-3.53,2.94-5.41,4.42-.45.35-.9.72-1.35,1.05-.64.49-1.27,1-1.92,1.47s-1.42,1.07-2.16,1.61h0c-.17.14-.35.25-.54.39-.5.36-1,.75-1.55,1.11-.7.5-1.42,1-2.14,1.52-1.48,1-3,2.07-4.57,3.11-.8.53-1.62,1.07-2.45,1.6q-7.39,4.79-16.11,9.63c-2.46,1.37-5,2.72-7.6,4.09-.71.37-1.43.75-2.17,1.12-1.11.58-2.27,1.15-3.43,1.73-1.37.69-2.76,1.37-4.18,2.06-1,.46-2,.95-3,1.42l-3.24,1.52c-.17.06-.32.15-.49.21l-1.9.87-1.92.87-2.52,1.12L605,414.71c-1,.42-1.92.83-2.9,1.23l-2.41,1c-.38.17-.75.32-1.15.47l-2.42,1-3.07,1.24c-1,.41-2.09.83-3.14,1.23s-2,.79-3,1.17q-10,3.85-21.18,7.64c-1.85.62-3.74,1.26-5.66,1.89-2.84.93-5.76,1.87-8.73,2.8l-3.35,1c-1.29.4-2.58.8-3.88,1.18q-3.9,1.19-7.93,2.34l-.16.05c-2.07.6-4.18,1.2-6.3,1.79s-4.39,1.23-6.62,1.83c-2.57.69-5.18,1.39-7.81,2.07l-3.27.85c-2.21.57-4.41,1.12-6.66,1.67-1.12.29-2.24.55-3.38.84l-4.57,1.1-3.35.8-6,1.4-3.73.84-3.77.83c-1.25.29-2.52.55-3.8.84-2.67.56-5.38,1.15-8.12,1.72l-7.56,1.55-5.57,1.1-5.68,1.1c-7.61,1.45-15.44,2.89-23.5,4.26-2,.35-4,.7-6.09,1s-4.11.69-6.18,1c-3.45.57-7,1.12-10.51,1.67q-6,.93-12.05,1.82l-4.73.68c-2.4.34-4.82.69-7.26,1l0,0-4.59.62-2.58.35c-1.62.21-3.28.45-4.91.65-.67.1-1.35.18-2,.26h0l-.13,0-7.81,1c-3.11.39-6.26.77-9.43,1.15l-5.91.7c-2.87.34-5.76.66-8.68,1-3.14.35-6.29.7-9.48,1l-3,.32-10.86,1.12c-3.66.37-7.33.72-11.05,1.07-3.17.3-6.36.6-9.58.88q-15,1.35-30.72,2.56-5.91.45-12,.88c-2,.15-4,.28-6.08.42s-4.07.28-6.11.42l-6.17.4-5.53.35-2.7.16c-1.76.12-3.51.22-5.28.32s-3.54.2-5.32.32l-6.39.35v.05L693,471.58l128.62-4.11S757.81,393.81,707,335ZM662.42,436.16c0-6.93,11.16-12.56,24.93-12.56,11.91,0,21.87,4.21,24.34,9.82a6.57,6.57,0,0,1,.6,2.74c0,6.94-11.17,12.57-24.94,12.57-7.87,0-14.88-1.84-19.46-4.73C664.47,441.86,662.42,439.13,662.42,436.16Z"/><path class="cls-4" d="M647.4,265.77c-19.23-22.83-48.08-3.2-48.08-3.2l-83.12,47L203,486.48l.22.72,6.39-.35c1.78-.12,3.55-.22,5.32-.32s3.52-.2,5.28-.32l2.7-.16,5.53-.35,6.17-.4c2-.14,4.09-.27,6.11-.42s4.06-.27,6.08-.42q6.06-.42,12-.88,15.74-1.2,30.72-2.56c3.22-.28,6.41-.58,9.58-.88,3.72-.35,7.39-.7,11.05-1.07L321,478l3-.32c3.19-.33,6.34-.68,9.48-1,2.92-.33,5.81-.65,8.68-1l5.91-.7c3.17-.38,6.32-.76,9.43-1.15l7.81-1,.13,0h0c.67-.08,1.35-.16,2-.26,1.63-.2,3.29-.44,4.91-.65l2.58-.35c1.55-.2,3.11-.42,4.64-.64,2.44-.33,4.86-.68,7.26-1l4.73-.68q6.11-.9,12.05-1.82c3.54-.55,7.06-1.1,10.51-1.67,2.07-.33,4.14-.67,6.18-1s4.07-.68,6.09-1c8.06-1.37,15.89-2.81,23.5-4.26l5.68-1.1,5.57-1.1,7.56-1.55c2.74-.57,5.45-1.16,8.12-1.72,1.28-.29,2.55-.55,3.8-.84l3.77-.83,3.73-.84,6-1.4,3.35-.8,4.57-1.1c1.14-.29,2.26-.55,3.38-.84,2.25-.55,4.45-1.1,6.66-1.67l3.27-.85c2.63-.68,5.24-1.38,7.81-2.07,2.23-.6,4.44-1.22,6.62-1.83s4.23-1.19,6.3-1.79l.16-.05q4-1.15,7.93-2.34c1.3-.38,2.59-.78,3.88-1.18l3.35-1c3-.93,5.89-1.87,8.73-2.8,1.92-.63,3.81-1.27,5.66-1.89q11.16-3.78,21.18-7.64,1.5-.57,3-1.17c1.05-.4,2.1-.82,3.14-1.23l3.07-1.24,2.42-1c.4-.15.77-.3,1.15-.47l2.41-1c1-.4,1.95-.81,2.9-1.23l2.87-1.25,2.52-1.12,1.92-.87,1.9-.87c.17-.06.32-.15.49-.21l3.24-1.52c1-.47,2-1,3-1.42,1.42-.69,2.81-1.37,4.18-2.06,1.16-.58,2.32-1.15,3.43-1.73.74-.37,1.46-.75,2.17-1.12,2.62-1.37,5.14-2.72,7.6-4.09q8.73-4.83,16.11-9.63c.83-.53,1.65-1.07,2.45-1.6,1.57-1,3.09-2.07,4.57-3.11.72-.5,1.44-1,2.14-1.52.53-.36,1-.75,1.55-1.11.19-.14.37-.25.54-.39a80.31,80.31,0,0,1-28.08,4.83c-18,0-33.85-5.36-43-13.46-5.14-4.57-8.12-10-8.12-15.87,0-16.21,22.86-29.34,51.07-29.34,26.42,0,48.16,11.51,50.79,26.28a16.44,16.44,0,0,1,.29,3.06,17.45,17.45,0,0,1-.87,5.41l.33-.35c.52-.54,1-1.09,1.52-1.62.84-.9,1.62-1.77,2.39-2.64q2.37-2.73,4.4-5.32c.34-.44.67-.87,1-1.31s.73-1,1.08-1.47c.69-1,1.34-1.86,2-2.78.31-.49.65-1,.95-1.45.53-.82,1-1.62,1.5-2.41s.82-1.35,1.19-2c.2-.33.38-.67.55-1,.4-.7.75-1.38,1.08-2,.45-.88.87-1.75,1.25-2.58C678.61,302.16,654.29,274,647.4,265.77ZM361.11,467.47a35.85,35.85,0,0,1-16.9-3.89c-4.62-2.54-7.51-6.13-7.51-10.08,0-7.71,10.94-14,24.41-14,10.54,0,19.52,3.84,22.93,9.2a8.85,8.85,0,0,1,1.47,4.77C385.51,461.21,374.58,467.47,361.11,467.47ZM466,421.79c-12.8,0-24.22-3.39-31.63-8.68-5.52-3.94-8.81-8.93-8.81-14.38,0-12.73,18.11-23.05,40.44-23.05,19.86,0,36.4,8.17,39.79,18.93a13.14,13.14,0,0,1,.65,4.12C506.4,411.47,488.29,421.79,466,421.79Z"/><path class="cls-5" d="M693,471.58,203.22,487.25l20.92,66.58a32.84,32.84,0,0,1,17.57-5.11c19.58,0,35.45,17.35,35.45,38.74,0,17.16-10.21,31.72-24.35,36.79,0,0,0,0,0,0a29.23,29.23,0,0,1-3,.92l-.2.31.23.74,8.36,26.39C357.57,661.91,717.87,681.29,693,471.58ZM473.74,614.69c-19.58,0-35.45-17.35-35.45-38.74s15.87-38.74,35.45-38.74a32.16,32.16,0,0,1,5.22.43c17.11,2.75,30.23,18.84,30.23,38.31S496.07,611.5,479,614.25A31.08,31.08,0,0,1,473.74,614.69Zm141.12-62.16c-16.2,0-29.36-13.52-29.36-30.21s13.16-30.21,29.36-30.21a28.27,28.27,0,0,1,4.63.38c14,2.27,24.73,14.75,24.73,29.83s-10.73,27.55-24.73,29.82A28.27,28.27,0,0,1,614.86,552.53Z"/><path class="cls-6" d="M505.75,394.61c-7.41-5.31-18.83-8.69-31.64-8.69-22.34,0-40.45,10.31-40.45,23.05a12.91,12.91,0,0,0,.67,4.14c-5.52-3.94-8.81-8.93-8.81-14.38,0-12.73,18.11-23.05,40.44-23.05C485.82,375.68,502.36,383.85,505.75,394.61Z"/><path class="cls-7" d="M688.37,353.53c-9.09-8.11-24.93-13.47-42.94-13.47-28.21,0-51.08,13.14-51.08,29.35a17.22,17.22,0,0,0,.28,3c-5.14-4.57-8.12-10-8.12-15.87,0-16.21,22.86-29.34,51.07-29.34C664,327.25,685.74,338.76,688.37,353.53Z"/><path class="cls-8" d="M688.66,356.59a17.45,17.45,0,0,1-.87,5.41c-.94,1-1.9,1.95-2.92,2.93-.55.56-1.12,1.09-1.69,1.62-1.37,1.31-2.82,2.64-4.32,4l-.05.05a2.92,2.92,0,0,1-.29.23q-1,.88-2,1.74c-1.72,1.47-3.53,2.94-5.41,4.42-.45.35-.9.72-1.35,1.05-.64.49-1.27,1-1.92,1.47s-1.42,1.07-2.16,1.61h0a80.31,80.31,0,0,1-28.08,4.83c-18,0-33.85-5.36-43-13.46a17.22,17.22,0,0,1-.28-3c0-16.21,22.87-29.35,51.08-29.35,18,0,33.85,5.36,42.94,13.47A16.44,16.44,0,0,1,688.66,356.59Z"/><path class="cls-9" d="M506.4,398.73c0,12.74-18.11,23.06-40.44,23.06-12.8,0-24.22-3.39-31.63-8.68a12.91,12.91,0,0,1-.67-4.14c0-12.74,18.11-23.05,40.45-23.05,12.81,0,24.23,3.38,31.64,8.69A13.14,13.14,0,0,1,506.4,398.73Z"/><path class="cls-10" d="M384,448.73a35.63,35.63,0,0,0-16.89-3.89c-13.47,0-24.41,6.26-24.41,14a8.82,8.82,0,0,0,1.47,4.77c-4.62-2.54-7.51-6.13-7.51-10.08,0-7.71,10.94-14,24.41-14C371.65,439.53,380.63,443.37,384,448.73Z"/><path class="cls-11" d="M385.51,453.5c0,7.71-10.93,14-24.4,14a35.85,35.85,0,0,1-16.9-3.89,8.82,8.82,0,0,1-1.47-4.77c0-7.71,10.94-14,24.41-14A35.63,35.63,0,0,1,384,448.73,8.85,8.85,0,0,1,385.51,453.5Z"/><path class="cls-12" d="M711.69,433.42c-4.57-2.89-11.58-4.72-19.46-4.72-13.79,0-24.94,5.62-24.94,12.56a6.57,6.57,0,0,0,.6,2.74c-3.42-2.14-5.47-4.87-5.47-7.84,0-6.93,11.16-12.56,24.93-12.56C699.26,423.6,709.22,427.81,711.69,433.42Z"/><path class="cls-13" d="M712.29,436.16c0,6.94-11.17,12.57-24.94,12.57-7.87,0-14.88-1.84-19.46-4.73a6.57,6.57,0,0,1-.6-2.74c0-6.94,11.15-12.56,24.94-12.56,7.88,0,14.89,1.83,19.46,4.72A6.57,6.57,0,0,1,712.29,436.16Z"/><path class="cls-14" d="M619.49,552.14a28.27,28.27,0,0,1-4.63.39c-16.2,0-29.36-13.52-29.36-30.21s13.16-30.21,29.36-30.21a28.27,28.27,0,0,1,4.63.38c-14,2.27-24.74,14.75-24.74,29.83S605.48,549.87,619.49,552.14Z"/><path class="cls-15" d="M479,614.25a31.08,31.08,0,0,1-5.22.44c-19.58,0-35.45-17.35-35.45-38.74s15.87-38.74,35.45-38.74a32.16,32.16,0,0,1,5.22.43c-17.11,2.75-30.23,18.84-30.23,38.31S461.85,611.5,479,614.25Z"/><path class="cls-16" d="M277.16,587.46c0,17.16-10.21,31.72-24.35,36.79,9.45-6.94,15.64-18.74,15.64-32.11,0-21.4-15.87-38.74-35.45-38.74a32.59,32.59,0,0,0-8.65,1.16l-.21-.73a32.84,32.84,0,0,1,17.57-5.11C261.29,548.72,277.16,566.07,277.16,587.46Z"/><path class="cls-17" d="M268.45,592.14c0,13.37-6.19,25.17-15.64,32.11,0,0,0,0,0,0a29.23,29.23,0,0,1-3,.92c32-50.25-25.44-70.59-25.44-70.59l0,0A32.59,32.59,0,0,1,233,553.4C252.58,553.4,268.45,570.74,268.45,592.14Z"/><ellipse class="cls-18" cx="478.96" cy="575.95" rx="30.23" ry="38.31"/><ellipse class="cls-19" cx="619.49" cy="522.32" rx="24.74" ry="29.83"/><path class="cls-20" d="M697.94,684.54a26.39,26.39,0,0,1-6.31.75c-16.21,0-29.36-14.32-29.36-32s13.15-32,29.36-32a26.39,26.39,0,0,1,6.31.75c-13.19,3.14-23.07,15.93-23.07,31.25S684.75,681.4,697.94,684.54Z"/><path class="cls-21" d="M721,653.31c0,15.31-9.88,28.09-23.06,31.23-13.19-3.14-23.07-15.92-23.07-31.23s9.88-28.11,23.07-31.25C711.12,625.2,721,638,721,653.31Z"/><path class="cls-22" d="M811.64,561.88a26.71,26.71,0,0,1-5.16.5c-16.22,0-29.38-14.32-29.38-32s13.16-32,29.38-32a26.71,26.71,0,0,1,5.16.5c-13.74,2.65-24.19,15.74-24.19,31.5S797.9,559.22,811.64,561.88Z"/><path class="cls-23" d="M815.64,560.61v.18a24.49,24.49,0,0,1-4,1.09c-13.74-2.66-24.19-15.74-24.19-31.48s10.45-28.85,24.19-31.5a27.47,27.47,0,0,1,9.41,3.72C782.34,530.61,815.64,560.61,815.64,560.61Z"/><path class="cls-6" d="M185,662c-1,5.23-6.11,8.3-12.29,12-13.25,8.07-26.8,8.18-35.15,8.15a93.47,93.47,0,0,1-31.7-5.74c-3.27-1.09-13.21-4.83-15.32-12.92-.42-1.62-1.3-6.38,8.87-22a158,158,0,0,1,16.22-20.83c1.3-1.44,3-3.28,5.22-5.31-3.37,18.81-5.1,52.29,25.72,51.42C163.38,666.35,175.93,664.29,185,662Z"/><path class="cls-24" d="M185.05,661.67c0,.1,0,.2-.07.3-9,2.32-21.6,4.38-38.43,4.84-30.82.87-29.09-32.61-25.72-51.42.72-.65,1.47-1.35,2.29-2,5.09-4.41,7.7-6.63,10.67-6.92,4-.38,7.11,2,12.46,6.16,3.18,2.46,5.13,4.53,10.67,10.52,6.09,6.61,9.15,9.91,10.07,11C179.67,648.65,186,656,185.05,661.67Z"/><path class="cls-6" d="M648.85,717.15c-1,4.83-5.65,7.67-11.36,11.14-12.26,7.46-24.79,7.56-32.51,7.53a86.47,86.47,0,0,1-29.31-5.31c-3-1-12.22-4.46-14.17-11.94-.38-1.5-1.2-5.9,8.2-20.33a146.91,146.91,0,0,1,15-19.26c1.21-1.33,2.81-3,4.83-4.91-3.11,17.39-4.72,48.36,23.79,47.55C628.88,721.19,640.48,719.29,648.85,717.15Z"/><path class="cls-24" d="M648.91,716.87a1.4,1.4,0,0,1-.06.28c-8.37,2.14-20,4-35.53,4.47-28.51.81-26.9-30.16-23.79-47.55.67-.6,1.36-1.25,2.12-1.9,4.71-4.07,7.11-6.13,9.86-6.39,3.71-.35,6.58,1.87,11.53,5.7,2.93,2.27,4.74,4.18,9.86,9.72,5.64,6.11,8.46,9.17,9.31,10.14C643.94,704.83,649.79,711.58,648.91,716.87Z"/><path class="cls-6" d="M884.87,632.63c-.52,2.55-3,4-6,5.88-6.47,3.94-13.08,4-17.15,4a45.91,45.91,0,0,1-15.47-2.8c-1.59-.53-6.45-2.36-7.47-6.31-.21-.79-.64-3.11,4.32-10.72A76.73,76.73,0,0,1,851,612.49c.63-.7,1.48-1.6,2.55-2.59-1.65,9.18-2.5,25.52,12.55,25.09A85,85,0,0,0,884.87,632.63Z"/><path class="cls-24" d="M884.9,632.49l0,.14A85,85,0,0,1,866.12,635c-15,.43-14.2-15.91-12.55-25.09.35-.32.71-.66,1.11-1,2.49-2.15,3.76-3.23,5.21-3.37,2-.19,3.47,1,6.08,3a40.91,40.91,0,0,1,5.2,5.13c3,3.23,4.47,4.84,4.92,5.35C882.28,626.13,885.36,629.69,884.9,632.49Z"/><path class="cls-6" d="M909.54,724.91c-1.06,5.27-6.16,8.37-12.39,12.15-13.36,8.13-27,8.25-35.44,8.22a94.41,94.41,0,0,1-32-5.79c-3.3-1.1-13.33-4.87-15.45-13-.42-1.63-1.32-6.43,8.93-22.16a161.71,161.71,0,0,1,16.36-21c1.31-1.45,3.07-3.3,5.27-5.35-3.4,19-5.15,52.73,25.94,51.85C887.76,729.32,900.42,727.25,909.54,724.91Z"/><path class="cls-24" d="M909.61,724.61c0,.1,0,.2-.07.3-9.12,2.34-21.78,4.41-38.74,4.88-31.09.88-29.34-32.88-25.94-51.85.72-.66,1.48-1.36,2.31-2.07,5.13-4.44,7.75-6.68,10.75-7,4-.39,7.17,2,12.57,6.21,3.2,2.48,5.17,4.56,10.76,10.61,6.14,6.66,9.22,10,10.15,11C904.19,711.48,910.57,718.84,909.61,724.61Z"/></g></svg>